{
  "accessors": [
    {
      "bufferView": 2,
      "componentType": 5126,
      "count": 6268,
      "max": [
        8.666552543640137,
        12.695137977600098,
        9.066462516784668
      ],
      "min": [
        -2.814436674118042,
        0.06403284519910812,
        -2.891251802444458
      ],
      "type": "VEC3"
    },
    {
      "bufferView": 2,
      "byteOffset": 75216,
      "componentType": 5126,
      "count": 6268,
      "max": [
        0.9999969005584717,
        0.999994158744812,
        0.9999068975448608
      ],
      "min": [
        -0.9999943971633911,
        -0.9998222589492798,
        -0.9998487234115601
      ],
      "type": "VEC3"
    },
    {
      "bufferView": 1,
      "componentType": 5126,
      "count": 6268,
      "max": [
        0.0,
        0.0
      ],
      "min": [
        0.0,
        0.0
      ],
      "type": "VEC2"
    },
    {
      "bufferView": 0,
      "componentType": 5125,
      "count": 37440,
      "type": "SCALAR"
    },
    {
      "bufferView": 2,
      "byteOffset": 150432,
      "componentType": 5126,
      "count": 3912,
      "max": [
        4.738808631896973,
        14.078495025634766,
        3.862905979156494
      ],
      "min": [
        3.0606393814086914,
        10.716570854187012,
        1.3240127563476563
      ],
      "type": "VEC3"
    },
    {
      "bufferView": 2,
      "byteOffset": 197376,
      "componentType": 5126,
      "count": 3912,
      "max": [
        0.9997632503509521,
        1.0,
        0.999894380569458
      ],
      "min": [
        -0.9966216683387756,
        -0.9999818801879883,
        -0.9999505281448364
      ],
      "type": "VEC3"
    },
    {
      "bufferView": 1,
      "byteOffset": 50144,
      "componentType": 5126,
      "count": 3912,
      "max": [
        0.0,
        0.0
      ],
      "min": [
        0.0,
        0.0
      ],
      "type": "VEC2"
    },
    {
      "bufferView": 0,
      "byteOffset": 149760,
      "componentType": 5125,
      "count": 22680,
      "type": "SCALAR"
    },
    {
      "bufferView": 2,
      "byteOffset": 244320,
      "componentType": 5126,
      "count": 9938,
      "max": [
        4.405955791473389,
        13.733722686767578,
        3.4430036544799805
      ],
      "min": [
        3.497950792312622,
        0.09349796175956726,
        1.708153247833252
      ],
      "type": "VEC3"
    },
    {
      "bufferView": 2,
      "byteOffset": 363576,
      "componentType": 5126,
      "count": 9938,
      "max": [
        1.0,
        1.0,
        1.0
      ],
      "min": [
        -1.0,
        -1.0,
        -1.0
      ],
      "type": "VEC3"
    },
    {
      "bufferView": 1,
      "byteOffset": 81440,
      "componentType": 5126,
      "count": 9938,
      "max": [
        0.0,
        0.0
      ],
      "min": [
        0.0,
        0.0
      ],
      "type": "VEC2"
    },
    {
      "bufferView": 0,
      "byteOffset": 240480,
      "componentType": 5125,
      "count": 57744,
      "type": "SCALAR"
    },
    {
      "bufferView": 2,
      "byteOffset": 482832,
      "componentType": 5126,
      "count": 964,
      "max": [
        5.941949844360352,
        0.01342720352113247,
        3.3044326305389404
      ],
      "min": [
        1.7626073360443115,
        -0.2590614855289459,
        2.0108144283294678
      ],
      "type": "VEC3"
    },
    {
      "bufferView": 2,
      "byteOffset": 494400,
      "componentType": 5126,
      "count": 964,
      "max": [
        0.9624457359313965,
        0.999976634979248,
        0.9992973804473877
      ],
      "min": [
        -0.9641050100326538,
        -0.9994616508483887,
        -0.9998852014541626
      ],
      "type": "VEC3"
    },
    {
      "bufferView": 1,
      "byteOffset": 160944,
      "componentType": 5126,
      "count": 964,
      "max": [
        0.0,
        0.0
      ],
      "min": [
        0.0,
        0.0
      ],
      "type": "VEC2"
    },
    {
      "bufferView": 0,
      "byteOffset": 471456,
      "componentType": 5125,
      "count": 5760,
      "type": "SCALAR"
    },
    {
      "bufferView": 2,
      "byteOffset": 505968,
      "componentType": 5126,
      "count": 6268,
      "max": [
        3.911004066467285,
        4.175008773803711,
        0.5766050219535828
      ],
      "min": [
        -3.596604108810425,
        -3.0332889556884766,
        -7.35378885269165
      ],
      "type": "VEC3"
    },
    {
      "bufferView": 2,
      "byteOffset": 581184,
      "componentType": 5126,
      "count": 6268,
      "max": [
        0.999976634979248,
        0.9998792409896851,
        0.9999972581863403
      ],
      "min": [
        -0.9977396726608276,
        -0.999882698059082,
        -0.9999665021896362
      ],
      "type": "VEC3"
    },
    {
      "bufferView": 1,
      "byteOffset": 168656,
      "componentType": 5126,
      "count": 6268,
      "max": [
        0.0,
        0.0
      ],
      "min": [
        0.0,
        0.0
      ],
      "type": "VEC2"
    },
    {
      "bufferView": 0,
      "byteOffset": 494496,
      "componentType": 5125,
      "count": 37440,
      "type": "SCALAR"
    },
    {
      "bufferView": 2,
      "byteOffset": 656400,
      "componentType": 5126,
      "count": 3912,
      "max": [
        0.6439700126647949,
        0.4863629937171936,
        -6.111553192138672
      ],
      "min": [
        -0.950065016746521,
        -0.5672690272331238,
        -8.22232437133789
      ],
      "type": "VEC3"
    },
    {
      "bufferView": 2,
      "byteOffset": 703344,
      "componentType": 5126,
      "count": 3912,
      "max": [
        0.999751091003418,
        0.9998615980148315,
        0.9998825788497925
      ],
      "min": [
        -0.9997700452804565,
        -0.9999845027923584,
        -0.9998383522033691
      ],
      "type": "VEC3"
    },
    {
      "bufferView": 1,
      "byteOffset": 218800,
      "componentType": 5126,
      "count": 3912,
      "max": [
        0.0,
        0.0
      ],
      "min": [
        0.0,
        0.0
      ],
      "type": "VEC2"
    },
    {
      "bufferView": 0,
      "byteOffset": 644256,
      "componentType": 5125,
      "count": 22680,
      "type": "SCALAR"
    },
    {
      "bufferView": 2,
      "byteOffset": 750288,
      "componentType": 5126,
      "count": 9953,
      "max": [
        0.3803359866142273,
        0.2117989957332611,
        0.5581049919128418
      ],
      "min": [
        -0.7088840007781982,
        -0.3582890033721924,
        -8.005860328674316
      ],
      "type": "VEC3"
    },
    {
      "bufferView": 2,
      "byteOffset": 869724,
      "componentType": 5126,
      "count": 9953,
      "max": [
        1.0,
        1.0,
        1.0
      ],
      "min": [
        -1.0,
        -1.0,
        -1.0
      ],
      "type": "VEC3"
    },
    {
      "bufferView": 1,
      "byteOffset": 250096,
      "componentType": 5126,
      "count": 9953,
      "max": [
        0.0,
        0.0
      ],
      "min": [
        0.0,
        0.0
      ],
      "type": "VEC2"
    },
    {
      "bufferView": 0,
      "byteOffset": 734976,
      "componentType": 5125,
      "count": 57204,
      "type": "SCALAR"
    },
    {
      "bufferView": 2,
      "byteOffset": 989160,
      "componentType": 5126,
      "count": 964,
      "max": [
        0.2933340072631836,
        1.3013279438018799,
        0.7794579863548279
      ],
      "min": [
        -0.5188599824905396,
        -1.3226569890975952,
        0.6083769798278809
      ],
      "type": "VEC3"
    },
    {
      "bufferView": 2,
      "byteOffset": 1000728,
      "componentType": 5126,
      "count": 964,
      "max": [
        0.9995408058166504,
        0.9671728014945984,
        0.9999831914901733
      ],
      "min": [
        -0.9999949932098389,
        -0.9668901562690735,
        -0.9999406337738037
      ],
      "type": "VEC3"
    },
    {
      "bufferView": 1,
      "byteOffset": 329720,
      "componentType": 5126,
      "count": 964,
      "max": [
        0.0,
        0.0
      ],
      "min": [
        0.0,
        0.0
      ],
      "type": "VEC2"
    },
    {
      "bufferView": 0,
      "byteOffset": 963792,
      "componentType": 5125,
      "count": 5760,
      "type": "SCALAR"
    }
  ],
  "asset": {
    "extras": {
      "author": "lamujer (https://sketchfab.com/lamujer)",
      "license": "CC-BY-4.0 (http://creativecommons.org/licenses/by/4.0/)",
      "source": "https://sketchfab.com/3d-models/arabidopsis-thaliana-model-e79922a7f1ea418ab928f2fa8c06cd48",
      "title": "Arabidopsis thaliana model"
    },
    "generator": "Sketchfab-12.66.0",
    "version": "2.0"
  },
  "bufferViews": [
    {
      "buffer": 0,
      "byteLength": 986832,
      "name": "floatBufferViews",
      "target": 34963
    },
    {
      "buffer": 0,
      "byteLength": 337432,
      "byteOffset": 986832,
      "byteStride": 8,
      "name": "floatBufferViews",
      "target": 34962
    },
    {
      "buffer": 0,
      "byteLength": 1012296,
      "byteOffset": 1324264,
      "byteStride": 12,
      "name": "floatBufferViews",
      "target": 34962
    }
  ],
  "buffers": [
    {
      "byteLength": 2336560,
      "uri": "scene.bin"
    }
  ],
  "materials": [
    {
      "doubleSided": true,
      "name": "Rosette",
      "pbrMetallicRoughness": {
        "baseColorFactor": [
          0.0609451,
          0.0834482,
          0.018351,
          1.0
        ],
        "metallicFactor": 0.0,
        "roughnessFactor": 0.5
      }
    },
    {
      "doubleSided": true,
      "name": "Petal",
      "pbrMetallicRoughness": {
        "baseColorFactor": [
          0.664435,
          0.664435,
          0.664435,
          1.0
        ],
        "metallicFactor": 0.0,
        "roughnessFactor": 0.490909
      }
    },
    {
      "doubleSided": true,
      "name": "Flower_stem",
      "pbrMetallicRoughness": {
        "baseColorFactor": [
          0.18023,
          0.307972,
          0.0168831,
          1.0
        ],
        "metallicFactor": 0.0,
        "roughnessFactor": 0.5
      }
    },
    {
      "doubleSided": true,
      "name": "Cotyledon",
      "pbrMetallicRoughness": {
        "baseColorFactor": [
          0.222984,
          0.182464,
          0.0429383,
          1.0
        ],
        "metallicFactor": 0.0,
        "roughnessFactor": 0.5
      }
    },
    {
      "doubleSided": true,
      "name": "Rosette.001",
      "pbrMetallicRoughness": {
        "baseColorFactor": [
          0.060945,
          0.083448,
          0.018351,
          1.0
        ],
        "metallicFactor": 0.0,
        "roughnessFactor": 0.5
      }
    },
    {
      "doubleSided": true,
      "name": "Petal.001",
      "pbrMetallicRoughness": {
        "baseColorFactor": [
          0.664435,
          0.664435,
          0.664435,
          1.0
        ],
        "metallicFactor": 0.0,
        "roughnessFactor": 0.490909
      }
    },
    {
      "doubleSided": true,
      "name": "Flower_stem.001",
      "pbrMetallicRoughness": {
        "baseColorFactor": [
          0.18023,
          0.307972,
          0.016883,
          1.0
        ],
        "metallicFactor": 0.0,
        "roughnessFactor": 0.5
      }
    },
    {
      "doubleSided": true,
      "name": "Cotyledon.001",
      "pbrMetallicRoughness": {
        "baseColorFactor": [
          0.222984,
          0.182464,
          0.042938,
          1.0
        ],
        "metallicFactor": 0.0,
        "roughnessFactor": 0.5
      }
    }
  ],
  "meshes": [
    {
      "name": "Object_0",
      "primitives": [
        {
          "attributes": {
            "NORMAL": 1,
            "POSITION": 0,
            "TEXCOORD_0": 2
          },
          "indices": 3,
          "material": 0,
          "mode": 4
        }
      ]
    },
    {
      "name": "Object_1",
      "primitives": [
        {
          "attributes": {
            "NORMAL": 5,
            "POSITION": 4,
            "TEXCOORD_0": 6
          },
          "indices": 7,
          "material": 1,
          "mode": 4
        }
      ]
    },
    {
      "name": "Object_2",
      "primitives": [
        {
          "attributes": {
            "NORMAL": 9,
            "POSITION": 8,
            "TEXCOORD_0": 10
          },
          "indices": 11,
          "material": 2,
          "mode": 4
        }
      ]
    },
    {
      "name": "Object_3",
      "primitives": [
        {
          "attributes": {
            "NORMAL": 13,
            "POSITION": 12,
            "TEXCOORD_0": 14
          },
          "indices": 15,
          "material": 3,
          "mode": 4
        }
      ]
    },
    {
      "name": "Object_4",
      "primitives": [
        {
          "attributes": {
            "NORMAL": 17,
            "POSITION": 16,
            "TEXCOORD_0": 18
          },
          "indices": 19,
          "material": 4,
          "mode": 4
        }
      ]
    },
    {
      "name": "Object_5",
      "primitives": [
        {
          "attributes": {
            "NORMAL": 21,
            "POSITION": 20,
            "TEXCOORD_0": 22
          },
          "indices": 23,
          "material": 5,
          "mode": 4
        }
      ]
    },
    {
      "name": "Object_6",
      "primitives": [
        {
          "attributes": {
            "NORMAL": 25,
            "POSITION": 24,
            "TEXCOORD_0": 26
          },
          "indices": 27,
          "material": 6,
          "mode": 4
        }
      ]
    },
    {
      "name": "Object_7",
      "primitives": [
        {
          "attributes": {
            "NORMAL": 29,
            "POSITION": 28,
            "TEXCOORD_0": 30
          },
          "indices": 31,
          "material": 7,
          "mode": 4
        }
      ]
    }
  ],
  "nodes": [
    {
      "children": [
        1
      ],
      "matrix": [
        0.032988887280225754,
        0.0,
        0.0,
        0.0,
        0.0,
        7.325004443054118e-18,
        -0.032988887280225754,
        0.0,
        0.0,
        0.032988887280225754,
        7.325004443054118e-18,
        0.0,
        0.0,
        0.0,
        0.0,
        1.0
      ],
      "name": "Sketchfab_model"
    },
    {
      "children": [
        2
      ],
      "name": "root"
    },
    {
      "children": [
        3,
        8
      ],
      "matrix": [
        1.0,
        0.0,
        0.0,
        0.0,
        0.0,
        2.220446049250313e-16,
        1.0,
        0.0,
        0.0,
        -1.0,
        2.220446049250313e-16,
        0.0,
        0.0,
        0.0,
        0.0,
        1.0
      ],
      "name": "GLTF_SceneRootNode"
    },
    {
      "children": [
        4,
        5,
        6,
        7
      ],
      "matrix": [
        0.0,
        0.0,
        -0.6278464198112488,
        0.0,
        0.0,
        0.6278464198112488,
        0.0,
        0.0,
        0.6278464198112488,
        0.0,
        0.0,
        0.0,
        -1.7813420295715332,
        -0.6168075799942017,
        2.4079747200012207,
        1.0
      ],
      "name": "Leaf_0"
    },
    {
      "mesh": 0,
      "name": "Object_4"
    },
    {
      "mesh": 1,
      "name": "Object_5"
    },
    {
      "mesh": 2,
      "name": "Object_6"
    },
    {
      "mesh": 3,
      "name": "Object_7"
    },
    {
      "children": [
        9,
        10,
        11,
        12
      ],
      "matrix": [
        1.0,
        0.0,
        0.0,
        0.0,
        0.0,
        -1.685873969314855e-07,
        0.9999999999999858,
        0.0,
        0.0,
        -0.9999999999999858,
        -1.685873969314855e-07,
        0.0,
        0.0,
        0.0,
        0.0,
        1.0
      ],
      "name": "Leaf_Circle.005_6"
    },
    {
      "mesh": 4,
      "name": "Object_9"
    },
    {
      "mesh": 5,
      "name": "Object_10"
    },
    {
      "mesh": 6,
      "name": "Object_11"
    },
    {
      "mesh": 7,
      "name": "Object_12"
    }
  ],
  "scene": 0,
  "scenes": [
    {
      "name": "Sketchfab_Scene",
      "nodes": [
        0
      ]
    }
  ]
}
